<?xml version="1.0" encoding="UTF-8"?>
<svg version="1.1" viewBox="0 0 512 512" xmlns="http://www.w3.org/2000/svg">
	<g fill="#ffffff">
		<path d="m303 221-15-26 63-37v-86l-52-51 21-21 61 60v116z"/>
		<path d="m394 243h-104v-30h91l52-54v-91h30v103z"/>
		<path d="m321 513-22-21 52-55v-84l-59-28 13-27 76 36v115z"/>
		<path d="m463 445h-30v-91l-52-54h-77v-30h89l69 72z"/>
	</g>
	<g fill="#ffffff" transform="matrix(-1,0,0,1,511,0)">
		<path d="m303 221-15-26 63-37v-86l-52-51 21-21 61 60v116z"/>
		<path d="m394 243h-104v-30h91l52-54v-91h30v103z"/>
		<path d="m321 513-22-21 52-55v-84l-59-28 13-27 76 36v115z"/>
		<path d="m463 445h-30v-91l-52-54h-77v-30h89l69 72z"/>
	</g>
	<circle fill="#ffffff" cx="256" cy="288" r="68"/>
	<circle fill="#ffffff" cx="256" cy="196" r="48"/>
</svg>
